<svg xmlns="http://www.w3.org/2000/svg" width="24" height="24" viewBox="0 0 24 24">
  <path id="image-plus" d="M22.4,11.6a1.2,1.2,0,0,0-1.2,1.2v4.056L19.424,15.08a3.348,3.348,0,0,0-4.716,0l-.84.852-2.976-2.988a3.348,3.348,0,0,0-4.716,0L4.4,14.732V8A1.2,1.2,0,0,1,5.6,6.8h9.6a1.2,1.2,0,1,0,0-2.4H5.6A3.6,3.6,0,0,0,2,8V22.664A3.348,3.348,0,0,0,5.336,26H20.264a3.456,3.456,0,0,0,.96-.144h0a3.288,3.288,0,0,0,2.4-3.18V12.8A1.2,1.2,0,0,0,22.4,11.6ZM5.6,23.6a1.2,1.2,0,0,1-1.2-1.2V18.116l3.468-3.468a.936.936,0,0,1,1.32,0L18.152,23.6Zm15.6-1.2a1.2,1.2,0,0,1-.216.648L15.56,17.6l.852-.84a.924.924,0,0,1,1.32,0L21.2,20.252Zm3.6-18H23.6V3.2a1.2,1.2,0,1,0-2.4,0V4.4H20a1.2,1.2,0,1,0,0,2.4h1.2V8a1.2,1.2,0,1,0,2.4,0V6.8h1.2a1.2,1.2,0,1,0,0-2.4Z" transform="translate(-2 -2)" fill="#f285ad"/>
</svg>
