<svg xmlns="http://www.w3.org/2000/svg" width="234" height="50.327" viewBox="0 0 234 50.327">
  <g id="Grupo_69" data-name="Grupo 69" transform="translate(-2169 -3466)">
    <g id="Grupo_68" data-name="Grupo 68">
      <g id="Grupo_67" data-name="Grupo 67">
        <g id="Grupo_66" data-name="Grupo 66">
          <g id="Grupo_65" data-name="Grupo 65">
            <g id="Grupo_64" data-name="Grupo 64">
              <g id="Grupo_63" data-name="Grupo 63">
                <g id="adopet-logo" transform="translate(2169 3465.996)">
                  <path id="Caminho_1" data-name="Caminho 1" d="M233.736.725c4.219,3.535,8.117.748,12.086-.609a9.224,9.224,0,0,1,9.616,4.763,8,8,0,0,0,5.746,4.475,6.877,6.877,0,0,1,2.709,1.46,10.211,10.211,0,0,1,3.407,7.23,8.365,8.365,0,0,1-.723,3.528,12.649,12.649,0,0,1-2.072,3.688,6.487,6.487,0,0,0-1.381,6.842,12.466,12.466,0,0,1-.014,4.162c-.584,2.161-1.157,4.325-2.734,6.034a13.122,13.122,0,0,1-10.548,4.276c-6.13-.093-12.268-.164-18.395.025a12.7,12.7,0,0,1-10.5-4.276c-1.7-1.8-2.211-4.108-2.7-6.422a7.8,7.8,0,0,1-.125-2.681,4.787,4.787,0,0,0-1.812-5.561,12.457,12.457,0,0,1-3.866-5.208,10.829,10.829,0,0,1-.762-4.414c.595-4.507,2.887-7.586,7.441-8.651a4.305,4.305,0,0,0,3.282-2.834,11.282,11.282,0,0,1,1.378-2.488c2.521-3.539,5.892-4.479,9.972-3.346Z" transform="translate(-136.308 0)" fill="#f285ad"/>
                  <path id="Caminho_2" data-name="Caminho 2" d="M475.89,59.171c-5.069-1.307-6.6-5.237-6.771-9.772a227.983,227.983,0,0,1,.452-26.921c.107-1.289.527-1.8,1.862-1.912a162.793,162.793,0,0,1,24.9.025c2.339.16,2.275,1.894,2.695,3.4,1.289,4.261.189,7.163-3.713,9.427-1.086.63.53.63.135,1.015l1.079,3.514c.972,3.873-.57,6.6-4.425,7.5,1.488-.025,2.855-.74,4,.417,1.267,1.064,1.659,2.624,2.289,4.051C499.457,54.6,497,58.665,492.3,59.4a50.2,50.2,0,0,1-16.412-.231Z" transform="translate(-301.984 -12.941)" fill="#5babd5"/>
                  <path id="Caminho_3" data-name="Caminho 3" d="M28.423,59.359c-3.09-.673-5.187-2.67-6.885-5.191-3.546-1.242-4.692-.84-6.073,2.136-1.556,3.346-3.809,4.187-8.345,3.112-5.9-1.99-8.078-5.767-6.739-12.895A111.479,111.479,0,0,1,7.967,22.572c.3-.687.566-1.449,1.42-1.691,5.329-1.52,10.623-2.335,15.821.53,2.958,1.631,4.372,4.436,5.746,7.277,1.716,3.542,2.506,7.412,3.809,11.1.958,3.674,2.072,7.305,2.841,11.029,1.086,5.251-1.851,8.939-7.255,8.993a3.538,3.538,0,0,1-1.926-.449Z" transform="translate(0 -12.555)" fill="#5babd5"/>
                  <path id="Caminho_4" data-name="Caminho 4" d="M574.321,59.871c-5.561-1.42-8.071-5.226-8.711-10.726a78.641,78.641,0,0,1-.427-10.588c.043-2.318-.367-3.428-3.1-3.357-4.012.107-4.628-.623-5.671-4.571-1.235-1.773-.755-3.314.627-4.742,1.164-3.532,3.692-4.963,7.316-5.248,6.661-.527,13.325-.05,19.979-.345,3.161-.139,5.34.68,5.977,4.034,1.93,5.169-.68,10.15-5.992,10.986-1.965.31-2.261,1.225-2.246,2.862a130.9,130.9,0,0,1-.513,16.583c-.545,4.528-2.542,5.931-7.241,5.109Z" transform="translate(-357.869 -13.057)" fill="#5babd5"/>
                  <path id="Caminho_5" data-name="Caminho 5" d="M375.967,58.84c-5.436-1.164-8.334-5.646-8.548-12.2-.05-1.52-.039-3.044-.057-4.564-1.328-1.367-.637-3.083-.808-4.649a37.267,37.267,0,0,1,1.307-12.076c-.189-3.411,1.591-5.354,4.728-6.205a36.03,36.03,0,0,1,18.377-.562,12.868,12.868,0,0,1,9.829,9.071C404.721,39.014,398,48.057,385.9,47.6c-1.282-.046-1.776.324-1.8,1.52-.025,1.05-.011,2.1-.018,3.154-.043,5.9-2.328,7.754-8.106,6.565Z" transform="translate(-236.039 -11.357)" fill="#5cabd5"/>
                  <path id="Caminho_6" data-name="Caminho 6" d="M117.013,58.07c-5.472-1.577-7.861-5.522-7.957-10.9-.135-7.64.018-15.287-.028-22.927a3.87,3.87,0,0,1,3.072-4.158,33.275,33.275,0,0,1,21.371.121c4.461,1.509,7.312,4.995,9.356,9.149a2.975,2.975,0,0,1,1.364,1.922c1.374,6.077,1.068,12.086-1.876,17.59-5.233,9.783-12.816,11.307-22.564,9.993a9.645,9.645,0,0,1-2.741-.787Z" transform="translate(-70.195 -11.833)" fill="#5babd5"/>
                  <path id="Caminho_8" data-name="Caminho 8" d="M265.336,51.4c-2.855,2.446-3.913,5.689-3.973,9.3-.068,4.058-.249,7.989-3.45,11.129a13.354,13.354,0,0,1-9.687,3.6c-7.444.021-14.91.623-22.346-.445-5.984-.858-9.868-4.557-10.488-10.705a16.19,16.19,0,0,0-3.966-9.577c-.63-.7-1.246-1.965-2.328-.431-1.385-2.378-.128-5.112-1.008-7.558.178-1.41.328-2.837,1.983-3.382q.347,2.28.694,4.564a16.878,16.878,0,0,0,3.848,7.216,7.945,7.945,0,0,1,1.883,3.165c.018.922.032,1.841.05,2.763.5,1.079.153,2.254.42,3.386a11.209,11.209,0,0,0,11.321,9.114c6.6.082,13.211.039,19.819.018,7.17-.025,11.136-3.688,11.809-10.865a3.131,3.131,0,0,1,.214-1.114q-.011-2.163-.018-4.322a5.2,5.2,0,0,1,.943-3.994,19.749,19.749,0,0,0,2.6-6.476c.214-1.157.427-2.318.644-3.475,1.125-1.118-.267-2.919,1.086-3.977l.456-.064q-.251,6.061-.495,12.122Z" transform="translate(-134.009 -25.287)" fill="#cfcdcb"/>
                  <path id="Caminho_9" data-name="Caminho 9" d="M608,67.194c5.458-.491,6.725-1.876,6.875-7.957.117-4.788.075-9.58.05-14.372-.007-1.339.1-2.407,1.68-2.866,6.561-1.9,7.793-3.667,7.391-10.349a7.34,7.34,0,0,1-4.9,11.8c-2.257.278-2.649,1.125-2.506,3.04.4,5.337-.474,10.641-.523,15.967-.05,5.458-3.04,7.213-8.064,4.731Z" transform="translate(-391.548 -20.38)" fill="#a6d2ea"/>
                  <path id="Caminho_10" data-name="Caminho 10" d="M393.05,76.943c.666-.032,1.331-.061,2-.1,3.289-.182,5.009-1.748,5.44-4.988a13.587,13.587,0,0,0,.064-1.428q.15-4.717,4.9-5.123a14.479,14.479,0,0,0,12.806-17.316c-.135-.744-.253-1.5-.377-2.243a14.352,14.352,0,0,1,.071,14.415c-2.916,5.322-8,6.867-13.667,6.212-2.421-.278-2.72.52-2.545,2.474.11,1.228.007,2.478,0,3.717-.018,4.532-1.52,5.853-6.095,5.422A4.35,4.35,0,0,1,393.05,76.943Z" transform="translate(-253.122 -29.46)" fill="#a6d2ea"/>
                  <path id="Caminho_11" data-name="Caminho 11" d="M159.1,55.643a35.05,35.05,0,0,1,.673,8.067l-.021,2.3c-1.346,8.042-5.041,14.319-13.542,16.124-4.884,1.04-9.99,1.5-14.7-1.175,3.955.47,7.875.879,11.887.142,9.164-1.68,14.411-9.819,15.162-18.683a32.429,32.429,0,0,0-.584-8.5c1.367-.075,1.043.958,1.129,1.723Z" transform="translate(-84.692 -34.721)" fill="#a6d1e9"/>
                  <path id="Caminho_12" data-name="Caminho 12" d="M488.484,113.113c4.3,0,8.6.032,12.9-.021,6.234-.078,9.242-3,9.6-9.231,2.649,4.55.94,9.057-4.244,10.061a52.8,52.8,0,0,1-16.216.139,7.239,7.239,0,0,1-2.043-.947Z" transform="translate(-314.578 -66.883)" fill="#a5d1e9"/>
                  <path id="Caminho_13" data-name="Caminho 13" d="M79.84,96.06a33.286,33.286,0,0,0,4.183-.758c4.1-1.271,5.159-3.428,4.557-7.718-.53-3.77-2.211-7.266-2.4-11.093,2.175,5.005,3.133,10.346,4.3,15.625a2.773,2.773,0,0,1-1.011,2.549,7.715,7.715,0,0,1-9.637,1.392Z" transform="translate(-51.417 -49.257)" fill="#a7d2ea"/>
                  <path id="Caminho_14" data-name="Caminho 14" d="M19.99,119.75c.755-.028,1.517-.018,2.268-.085,2.674-.242,4.87-.911,5.611-4.087.623-2.67,4.571-3.2,6.54-1.072-2.9-.37-4.7.452-5.454,3.7C28.232,121.285,23.746,121.894,19.99,119.75Z" transform="translate(-12.874 -72.894)" fill="#a7d2ea"/>
                  <path id="Caminho_15" data-name="Caminho 15" d="M544.745,32.816q-.315,2.371-.627,4.742c-1.623,1.4-2.125,4.247-5.08,3.923-.783-.281-1.566-.562-2.428-.869,4.585-1.431,5.643-3.14,6.006-9.573,1.2.007.79,1.944,2.133,1.78Z" transform="translate(-345.574 -19.987)" fill="#a7d2ea"/>
                  <path id="Caminho_16" data-name="Caminho 16" d="M537.039,78.158H532.5c3.67-1.392,4.852-4.322,4.966-7.918C539.9,73.02,538.492,75.591,537.039,78.158Z" transform="translate(-342.927 -45.232)" fill="#a3d0e9"/>
                  <path id="Caminho_17" data-name="Caminho 17" d="M357.54,29.334c.018-.438.039-.876.057-1.314a16.763,16.763,0,0,1,4.026,4.073c-.4,1.314.954,3.108-1.082,3.977a11.388,11.388,0,0,0-3-6.732Z" transform="translate(-230.254 -18.042)" fill="#e2dedb"/>
                  <path id="Caminho_18" data-name="Caminho 18" d="M264.468,65.141c3.275,2.026,7.437.951,11.691.093,2.478-.5,4.372.958,5.5,3.247s.445,4.311-1.136,6.045c-2.492,2.731-5.742,4.382-9,5.984a2.8,2.8,0,0,1-.837.178c-3.71.516-12.2-5.393-12.969-9.025-.7-3.307,2.132-6.476,6.75-6.522Z" transform="translate(-165.901 -41.944)" fill="#f9aab4"/>
                  <path id="Caminho_19" data-name="Caminho 19" d="M237.374,116.994c3.218,3.307,7.152,4.308,11.691,4.1,5.237-.239,10.5-.217,15.732,0,4.528.185,8.477-.84,11.713-4.112,1.093,1.912-.206,3.1-1.417,4.14a11.282,11.282,0,0,1-7.387,2.695c-6.985.082-13.977.125-20.962-.014a11.327,11.327,0,0,1-8.836-4.044c-.712-.851-1.378-1.645-.538-2.766Z" transform="translate(-152.613 -75.332)" fill="#aaa6a4"/>
                  <path id="Caminho_20" data-name="Caminho 20" d="M233.9,106.336c.854,3.489,4.528,6.145,9.221,6.237,7.081.139,14.169.192,21.243-.021,4.254-.128,8.658-2.275,8.672-6.234a26.738,26.738,0,0,0,2.214-5.354c1.1,8.875-5.08,12.909-12.183,12.82-6.586-.082-13.172.014-19.758-.028-5.475-.036-10.232-3.482-11.456-8.2a18.71,18.71,0,0,1-.185-5.123,20.372,20.372,0,0,0,2.229,5.91Z" transform="translate(-149.139 -64.674)" fill="#c4c1be"/>
                  <path id="Caminho_21" data-name="Caminho 21" d="M266.161,24.308c-.053,1.428-.2,2.784-1.46,3.6-1.406.911-2.56-.078-3.681-.723a7.405,7.405,0,0,1-2.99-3.375,4.427,4.427,0,0,1,1.456-5.575,4.2,4.2,0,0,1,5.433,1.784,9.1,9.1,0,0,1,1.239,4.286Z" transform="translate(-165.896 -11.468)" fill="#f7aab4"/>
                  <path id="Caminho_22" data-name="Caminho 22" d="M297.577,22.431c.057-3.5,1.979-5.842,4.678-5.71a3.76,3.76,0,0,1,3.482,4.126c-.046,2.834-3.037,6.237-5.426,6.18C298.481,26.981,297.527,25.379,297.577,22.431Z" transform="translate(-191.636 -10.762)" fill="#f7aab4"/>
                  <path id="Caminho_23" data-name="Caminho 23" d="M238.7,49c-.007,2.271-1,3.03-2.723,2.976-3.2-.1-6-2.7-5.928-5.458a3.039,3.039,0,0,1,3.286-3.2c2.6-.093,5.426,3.279,5.361,5.685Z" transform="translate(-148.148 -27.892)" fill="#f5a9b3"/>
                  <path id="Caminho_24" data-name="Caminho 24" d="M327.6,50.084c-1.7.125-2.542-.7-2.528-2.517.025-2.944,2.837-6.116,5.458-5.931a3.124,3.124,0,0,1,3.257,3.254c.085,2.677-2.937,5.237-6.191,5.194Z" transform="translate(-209.343 -26.806)" fill="#f6aab4"/>
                  <path id="Caminho_25" data-name="Caminho 25" d="M221.293,73.881c-2.82-2.958-6.045-5.693-5.732-10.381A23.57,23.57,0,0,0,220,68.562,4.035,4.035,0,0,1,221.293,73.881Z" transform="translate(-138.807 -40.891)" fill="#b4b0ae"/>
                  <path id="Caminho_26" data-name="Caminho 26" d="M356.621,60.39a9.957,9.957,0,0,1-2.2,7.376,15.348,15.348,0,0,0-1.339,3.094c-.94-2.549-1.011-4.867,1.214-6.956a17.789,17.789,0,0,0,2.328-3.51Z" transform="translate(-226.982 -38.888)" fill="#b8b4b2"/>
                  <path id="Caminho_27" data-name="Caminho 27" d="M498.583,41.819c1.331,4.222-.381,6.771-4.653,6.892-1.428.039-2.859.014-4.286.007-1.346,0-2.634-.221-2.688,1.908-.053,2.214,1.21,2.218,2.738,2.168a6.914,6.914,0,0,1,.854.071c1.143,1.21,2.627.655,3.977.744,1.951.125,3.916-.164,5.86.214,1.364,4.981-.6,7.619-5.557,8.206a51.713,51.713,0,0,1-13.614-.057c-1.68-.246-3.154-.7-3.838-2.453-1.595-7.932-.84-15.924-.573-23.9.036-1.036.153-2.083.171-3.129.061-3.542.773-4.379,4.386-4.429,6.672-.093,13.347-.061,20.022-.011,1.737,4.8-.666,8.477-5.646,8.6-2.1.05-4.2.036-6.294.014-1.314-.014-2.421-.043-2.471,1.851s.812,2.325,2.417,2.172a8.2,8.2,0,0,1,1.143.046c2.574,1.178,5.479-.064,8.056,1.093Z" transform="translate(-306.792 -18.032)" fill="#a6d2ea"/>
                  <path id="Caminho_28" data-name="Caminho 28" d="M500.224,26.93c-.822,1-1.954.555-2.948.562-5.351.039-10.7-.032-16.049.036-4.322.053-4.183.271-4.632,4.447-.776,7.245-.246,14.493-.545,21.731-.064,1.591.961,3.111.164,4.692-1.862-2.909-1.538-6.276-1.595-9.427-.114-6.661.239-13.329.424-19.993.036-1.239-.011-2.549,1.851-2.588,7.53-.15,15.063-.224,22.589.153.253.014.491.253.737.384Z" transform="translate(-305.638 -16.913)" fill="#f4f1ef"/>
                  <path id="Caminho_29" data-name="Caminho 29" d="M525.97,98.627c-2.919,1.314-5.984.431-8.982.552-.894.036-.89-.819-.851-1.509q3.877-.043,7.747-.085C524.756,97.573,525.653,97.523,525.97,98.627Z" transform="translate(-332.381 -62.838)" fill="#dfe9ed"/>
                  <path id="Caminho_30" data-name="Caminho 30" d="M524.15,64.644c-1.972.011-3.945.05-5.917.018-.862-.014-2,.367-2.143-1.107,2.713.178,5.582-.829,8.056,1.093Z" transform="translate(-332.359 -40.856)" fill="#eeefef"/>
                  <path id="Caminho_31" data-name="Caminho 31" d="M28.485,27.575c3.3,1.356,4.8,4.2,5.917,7.309A157.092,157.092,0,0,1,40.34,55.446c.748,3.528.356,4.7-2.321,5.81-3.492,1.453-6.81.662-8.434-1.88-.748-1.171-.548-3.154-2.161-3.492a16.909,16.909,0,0,0-7.1.3c-1.492.328-1.47,1.623-1.865,2.62-.555,1.4-.708,3.179-2.752,3.133-2.439-.053-5.3.933-6.664-2.3-1.25-3.19-.744-6.38.068-9.545a134.368,134.368,0,0,1,5.45-16.907c1.976-4.888,4.411-6.408,9.69-5.956a17.761,17.761,0,0,0,4.229.342Z" transform="translate(-5.341 -17.487)" fill="#a6d2ea"/>
                  <path id="Caminho_32" data-name="Caminho 32" d="M26.8,26.295c-2.905,1.111-6.031-.053-9,.958a4.57,4.57,0,0,0-3.254,2.777A125.511,125.511,0,0,0,7.581,52.369a35.656,35.656,0,0,0-.221,6C5.566,56.32,5.438,53.857,5.89,51.4a125.845,125.845,0,0,1,7.085-23.19,3.367,3.367,0,0,1,2.638-2.239c3.788-.933,7.5-1.314,11.189.331Z" transform="translate(-3.651 -16.207)" fill="#f3f1f0"/>
                  <path id="Caminho_33" data-name="Caminho 33" d="M593.986,28.014c1.972,5.817-.239,9.416-6.152,9.762-2.4.142-2.563,1.485-2.264,3.3,1.047,6.387-.349,12.738-.328,19.11.007,1.67-1.4,2.129-2.795,2.318-3.08.42-5.767-1.271-7.426-4.625-.648-5.518-.206-11.115-1.168-16.611.5-2.926-.8-3.866-3.606-3.467a23.945,23.945,0,0,1-3.941-.068c-2.325-3.93,1.873-9.263,5.981-9.484,7.238-.388,14.465-.046,21.7-.239Z" transform="translate(-364.27 -18.036)" fill="#a6d2ea"/>
                  <path id="Caminho_34" data-name="Caminho 34" d="M592.562,27c-.9,1.072-2.132.58-3.218.612-5.614.164-11.271-.484-16.843.3-6.134.869-7.412,2.592-7.615,8.808a6.17,6.17,0,0,1,2.488-9.733,15.483,15.483,0,0,1,5.08-.491c5.707.007,11.414-.018,17.12.021,1,.007,2.1-.381,2.987.473Z" transform="translate(-362.846 -17.025)" fill="#f3f1ef"/>
                  <path id="Caminho_35" data-name="Caminho 35" d="M588.475,65.254c.844.05,1.161.559,1.129,1.335a128.087,128.087,0,0,0,.566,13.731,1.524,1.524,0,0,1-.53,1.542c-1.8-5.436-1.21-11.043-1.168-16.611Z" transform="translate(-378.891 -42.018)" fill="#f1f1ef"/>
                  <path id="Caminho_36" data-name="Caminho 36" d="M398.2,25.967c6.284,2.471,8.886,7.64,7.469,14.835-1.1,5.6-5.682,9.057-11.755,9.374-1.926.1-4.521-1.773-5.671.506-.854,1.691-.288,4.112-.306,6.209-.036,3.8-1.271,5.536-4.037,5.052-2.517-.441-5.062-1.207-6.223-3.952-.883-5.664-.6-11.374-.694-17.074-.046-2.773.42-5.515.31-8.281-.114-2.916,1.381-4.614,3.991-5.579,4.98-1.841,10.1-1.609,15.248-1.093.555.057,1.107.349,1.666.011Z" transform="translate(-242.773 -16.481)" fill="#a6d2ea"/>
                  <path id="Caminho_37" data-name="Caminho 37" d="M397.175,24.495c-1.086.965-2.385.449-3.574.449-4.589,0-9.171-.185-13.55,1.652A4.1,4.1,0,0,0,377.1,30.34c-.58,6.39-.491,12.788-.538,19.192-.018,2.332,1.4,4.646.093,6.985a16.4,16.4,0,0,1-1.267-6.7c.078-6.6.007-13.2.135-19.79.078-3.909.854-4.746,4.681-5.611,5.657-1.278,11.325-1.687,16.971.089Z" transform="translate(-241.746 -15.008)" fill="#f1f0ee"/>
                  <path id="Caminho_38" data-name="Caminho 38" d="M136.944,27.008c6.006,2.652,9.064,7.27,9.324,13.827.2,4.963-.328,9.662-3.318,13.9a14.46,14.46,0,0,1-8.1,5.992,28.373,28.373,0,0,1-13.3.167,5.724,5.724,0,0,1-4.051-2.905c-1.52-2.414-1.278-5.2-1.335-7.811a155.35,155.35,0,0,1,.164-18.071c.3-3.236,1.114-4.2,4.172-4.845a33.006,33.006,0,0,1,13.92-.409,4.04,4.04,0,0,0,2.531.153Z" transform="translate(-74.689 -16.923)" fill="#a6d2ea"/>
                  <path id="Caminho_39" data-name="Caminho 39" d="M135.532,25.861c-.812.812-1.819.541-2.709.349-4.909-1.068-9.666-.167-14.418.968-2.076.495-2.933,1.684-2.905,3.895.1,7.273,0,14.546.046,21.82a29.475,29.475,0,0,0,.538,3.955c-2.367-2.481-1.9-5.735-2.079-8.672a148.74,148.74,0,0,1,.292-20.032c.135-1.848,1.3-2.165,2.577-2.488a35.27,35.27,0,0,1,18.658.21Z" transform="translate(-73.278 -15.777)" fill="#f2f1ef"/>
                  <path id="Caminho_40" data-name="Caminho 40" d="M264.117,74.075c-1.036.075-1.787-.3-1.684-1.595a2.377,2.377,0,0,1,2.617-2.421c1.079-.014,1.894.363,1.862,1.631A2.607,2.607,0,0,1,264.117,74.075Z" transform="translate(-168.999 -45.115)" fill="#f9d5d4"/>
                  <path id="Caminho_41" data-name="Caminho 41" d="M304.682,69.575a2.082,2.082,0,0,1-1.976,1.623,1.179,1.179,0,0,1-1.257-1.242c.018-1.239.908-1.509,1.933-1.506.7,0,1.331.142,1.3,1.121Z" transform="translate(-194.132 -44.079)" fill="#f8d2d2"/>
                  <path id="Caminho_42" data-name="Caminho 42" d="M47.069,65.02q-3.77-.253-2.909-3.852c.392-1.652.755-3.311,1.15-4.963.217-.9.3-1.99,1.506-2.132,1.46-.171,1.136,1.171,1.534,1.93.545,1.029.011,2.314.851,3.243a5.337,5.337,0,0,1,1.072,2.88C51.006,65.551,50.547,65.96,47.069,65.02Z" transform="translate(-28.336 -34.811)" fill="#5cacd6"/>
                  <path id="Caminho_43" data-name="Caminho 43" d="M52.62,70.972q3.407-.349,2.567-3.824c-.157-.648-.292-1.3-.434-1.951.064-.367.128-.733.335-1.9.612,2.549,1.186,4.354,1.428,6.2.1.748,1.275,2.083-.239,2.364C55.123,72.079,53.4,72.962,52.62,70.972Z" transform="translate(-33.887 -40.762)" fill="#eceeef"/>
                  <path id="Caminho_44" data-name="Caminho 44" d="M414.878,58.6c-1.762-.2-4.39,1.342-4.155-2.531.21-3.482.474-4.108,3.215-3.923s3.7,1.549,3.257,4.667c-.057,1.524-.723,2.257-2.318,1.791Z" transform="translate(-264.494 -33.561)" fill="#5aabd5"/>
                  <path id="Caminho_45" data-name="Caminho 45" d="M421.6,66.5a2.8,2.8,0,0,0,2.318-1.791c.42-.182.894-.6,1.271-.071a1.946,1.946,0,0,1-.207,2.617,3.069,3.069,0,0,1-3.19.776c-1.146-.242-.474-.968-.2-1.531Z" transform="translate(-271.216 -41.456)" fill="#f0f0ef"/>
                  <path id="Caminho_46" data-name="Caminho 46" d="M148.685,66.86c-2.531.377-3.813-.819-3.859-3.272-.1-4.956-.1-9.915-.146-14.874-.014-1.335.865-1.456,1.912-1.531,4.026-.3,5.685.911,7.818,5.817,1.328,3.984,1.193,7.857-1.178,11.417C152.209,65.955,151.052,67.639,148.685,66.86Z" transform="translate(-93.173 -30.356)" fill="#5cabd6"/>
                  <path id="Caminho_47" data-name="Caminho 47" d="M155.93,77.459c4.08-1.178,5.223-4.468,5.657-8.128a50.415,50.415,0,0,0,.064-5.732c2.35,3.638,2.168,9.943-.384,13.2-1.588,2.026-3.816,2.3-5.337.662Z" transform="translate(-100.418 -40.955)" fill="#f1f1ef"/>
                  <path id="Caminho_48" data-name="Caminho 48" d="M50.862,70.484c.876,1.054,1.114,1.791.32,2.538-.107.1-.466.128-.527.05-.623-.808-.117-1.549.21-2.592Z" transform="translate(-32.432 -45.386)" fill="#98cae6"/>
                  <path id="Caminho_49" data-name="Caminho 49" d="M416.968,57.43c.84.249,1.755.445,1.73,1.563-.018.8-.612,1.121-1.36,1.171-.958.064-1.417-.381-1.4-1.342C415.953,58.106,416.057,57.476,416.968,57.43Z" transform="translate(-267.862 -36.982)" fill="#a6d1e8"/>
                  <path id="Caminho_50" data-name="Caminho 50" d="M155.373,55.257c4.215,3.279,3.478,12.165-1.2,14.44a3.513,3.513,0,0,1-.862-2.61c0-3.112-.064-6.223.036-9.331.039-1.232-.061-2.812,2.019-2.5Z" transform="translate(-98.722 -35.557)" fill="#f5f2f0"/>
                  <path id="Caminho_51" data-name="Caminho 51" d="M153.85,53.525c-1.46.31-1.228,1.47-1.228,2.485,0,3.984.021,7.967.032,11.955-1.819.256-1.716-.993-1.716-2.179,0-3.628-.021-7.255.007-10.883.021-2.834.228-2.916,2.9-1.381Z" transform="translate(-97.199 -33.825)" fill="#add5ea"/>
                </g>
              </g>
            </g>
          </g>
        </g>
      </g>
    </g>
  </g>
</svg>
